<svg width="12" height="12" viewBox="0 0 12 12" fill="none" xmlns="http://www.w3.org/2000/svg">
<path d="M7.57121 11.9894C10.1228 11.2874 12 8.91676 12 6.10037C12 3.47374 10.3673 1.23483 8.07743 0.375561C7.54892 0.182947 6.98615 0.0610528 6.39993 0.0200819C6.20418 0.00648391 6.0992 -0.000208405 5.99185 4.94353e-06C5.88782 0.000211701 5.78156 0.00690401 5.58832 0.0200819C4.77586 0.0764037 3.9992 0.296957 3.29464 0.653839C1.34 1.65947 0 3.72081 0 6.10037C0 8.93106 1.89627 11.3114 4.46771 12C4.48523 11.9299 4.48514 11.801 4.47985 11.412C4.47745 11.098 4.47267 10.8375 4.47027 10.8375C4.46788 10.8351 4.37929 10.8473 4.27395 10.8667C3.6443 10.9714 3.08408 10.8278 2.72735 10.4651C2.58849 10.3239 2.5454 10.2558 2.40654 9.96365C2.18149 9.48656 2.04982 9.304 1.79604 9.11656C1.6093 8.98025 1.50875 8.87802 1.50875 8.8269C1.50875 8.70519 1.79844 8.66381 2.02827 8.75387C2.32754 8.86828 2.52625 9.04354 2.74411 9.38189C3.04577 9.84681 3.42404 10.0537 3.90526 10.0172C4.08961 10.0026 4.46309 9.89793 4.49182 9.85168C4.499 9.83708 4.52294 9.75918 4.5397 9.67886C4.58519 9.48412 4.7025 9.23827 4.80305 9.12387C4.84152 9.07987 4.86608 9.05472 4.86153 9.03754C4.85475 9.01195 4.78338 9.00403 4.59716 8.97782C4.35057 8.94374 3.92202 8.83177 3.71612 8.74901C2.84945 8.40092 2.34908 7.751 2.16234 6.73108C2.10249 6.4049 2.10249 5.60406 2.16234 5.35091C2.24853 4.98822 2.40894 4.65717 2.62919 4.38211L2.73214 4.2531L2.69623 4.13869C2.57174 3.74679 2.5861 3.23805 2.73454 2.76582C2.78242 2.61734 2.79199 2.60273 2.86382 2.58813C3.11999 2.53944 3.70655 2.75365 4.24283 3.08957L4.47745 3.23805L4.68574 3.18937C5.17414 3.07496 5.39919 3.05062 6.00969 3.05062C6.62258 3.05062 6.84524 3.07496 7.33364 3.18937L7.54432 3.23805L7.72867 3.12121C8.09497 2.88753 8.45648 2.7147 8.70307 2.65142C8.90657 2.6003 9.08374 2.57596 9.16035 2.59056C9.22738 2.60273 9.23935 2.61977 9.28484 2.76582C9.42131 3.1991 9.44525 3.74923 9.33991 4.08514L9.28963 4.24336L9.33751 4.30422C9.57214 4.59875 9.75648 4.95901 9.84507 5.29979C9.90731 5.53834 9.93126 6.14688 9.89056 6.48766C9.71339 7.96764 8.91615 8.76361 7.39828 8.97782C7.22268 9.00162 7.1562 9.00997 7.15018 9.03398C7.14635 9.04925 7.16699 9.07087 7.19957 9.10683C7.3097 9.22367 7.41504 9.43301 7.47489 9.64965C7.52277 9.82978 7.52756 9.90767 7.53953 10.9373C7.54808 11.5479 7.55102 11.8409 7.57121 11.9894Z" fill="white"/>
</svg>
