<svg width="12" height="12" viewBox="0 0 12 12" fill="none" xmlns="http://www.w3.org/2000/svg">
<path fill-rule="evenodd" clip-rule="evenodd" d="M6 12C9.31371 12 12 9.31371 12 6C12 2.68629 9.31371 0 6 0C2.68629 0 0 2.68629 0 6C0 9.31371 2.68629 12 6 12ZM2.98052 3.37693C2.77811 3.42051 2.57713 3.57372 2.48716 3.75082C2.48326 3.75864 2.47951 3.76591 2.47594 3.77287C2.46955 3.78533 2.46369 3.79676 2.4583 3.80842C2.41154 3.90968 2.40167 4.02795 2.40123 4.98826L2.40105 4.99755C2.39965 5.12686 2.39965 5.93366 2.40105 6.79245L2.40527 8.35263L2.40703 8.35696V8.36669L2.43258 8.42024L2.43765 8.43275C2.44834 8.45949 2.46126 8.48499 2.47617 8.50907C2.49141 8.53364 2.50869 8.55671 2.52776 8.57808C2.59986 8.6629 2.69493 8.71726 2.81045 8.73917C2.84979 8.74759 3.14074 8.75322 3.4556 8.75322H4.03046L4.03327 7.36031L4.03749 5.9688L4.04563 5.97491V5.97724L5.00933 6.69829C5.30692 6.9207 5.5766 7.12143 5.75774 7.25552C5.89945 7.3604 5.98696 7.42452 5.9913 7.42636C5.99186 7.42657 5.99446 7.42523 5.999 7.42245C6.00179 7.42416 6.00384 7.42532 6.00513 7.42592C6.00595 7.42629 6.00668 7.42636 6.00668 7.42636C6.01058 7.42469 6.08224 7.37227 6.2003 7.28492C6.33425 7.18579 6.52799 7.04168 6.75032 6.87571C6.82559 6.81979 6.90404 6.76129 6.98449 6.7011L7.96225 5.9688L7.96614 7.25389L7.96603 7.36452V8.75322H8.54467C8.85981 8.75322 9.15102 8.74759 9.1904 8.73917C9.35361 8.70825 9.47599 8.61267 9.55055 8.45805L9.59417 8.36669L9.5988 5.98605C9.60223 4.09421 9.60249 3.93747 9.54287 3.80842C9.53748 3.79676 9.53162 3.78533 9.5252 3.77287L9.51782 3.7585L9.51398 3.75082C9.42395 3.57372 9.22277 3.42051 9.02019 3.37693C8.8556 3.34181 8.68816 3.36148 8.54467 3.43458C8.51836 3.44773 8.27897 3.6212 7.93799 3.87372C7.93708 3.87152 7.93614 3.87092 7.93512 3.8717C7.92914 3.87683 7.76435 4.00028 7.51734 4.18532C7.35791 4.30478 7.1642 4.4499 6.95687 4.60541L5.999 5.3231L5.04026 4.60541C4.92776 4.52109 4.81928 4.43985 4.71809 4.36408C4.54764 4.23586 4.38357 4.11308 4.23325 4.00115C4.17958 3.96094 4.13684 3.92889 4.10736 3.90671C4.07903 3.88541 4.06292 3.87324 4.06113 3.8717C4.06049 3.87122 4.0599 3.87126 4.05932 3.8719C3.71991 3.62036 3.48185 3.44769 3.4556 3.43458C3.31222 3.36148 3.14496 3.34181 2.98052 3.37693Z" fill="white"/>
</svg>
