<svg width="12" height="12" viewBox="0 0 12 12" fill="none" xmlns="http://www.w3.org/2000/svg">
<path fill-rule="evenodd" clip-rule="evenodd" d="M6 12C9.31371 12 12 9.31371 12 6C12 2.68629 9.31371 0 6 0C2.68629 0 0 2.68629 0 6C0 9.31371 2.68629 12 6 12ZM2.8591 2.58847C2.95877 2.53092 3.10195 2.47758 3.20583 2.46073C3.3055 2.44529 3.50062 2.45512 3.59888 2.48179C3.75189 2.5225 3.90631 2.61234 4.02843 2.73446C4.12389 2.82992 4.15477 2.87063 4.20671 2.98153C4.33586 3.24684 4.34709 3.50373 4.24461 3.76342C4.13933 4.02452 3.92315 4.22947 3.65363 4.32072C3.54835 4.35721 3.51746 4.36143 3.35322 4.36143C3.19039 4.36143 3.1581 4.35721 3.05843 4.32212C2.89279 4.26597 2.80576 4.20982 2.67801 4.08348C2.55167 3.95574 2.49552 3.8673 2.43937 3.70306C2.40568 3.6048 2.40007 3.5697 2.40007 3.41529C2.39866 3.21174 2.41832 3.13454 2.50816 2.95907C2.57694 2.82711 2.73136 2.66287 2.8591 2.58847ZM7.5266 4.49615C7.1518 4.52984 6.82191 4.67583 6.54256 4.93131L6.46255 5.00431V4.90464C6.46255 4.76146 6.42184 4.68706 6.31094 4.63091C6.27023 4.60985 6.19584 4.60845 5.60906 4.61126L4.9521 4.61547L4.89455 4.65337C4.88618 4.65888 4.87849 4.66276 4.87142 4.66632C4.86514 4.66949 4.85936 4.6724 4.85403 4.67599C4.79152 4.71812 4.79156 4.85304 4.79199 6.57007C4.79203 6.72508 4.79207 6.89297 4.79207 7.07486C4.79207 9.29281 4.79348 9.36159 4.81874 9.4037C4.83278 9.42757 4.86928 9.46266 4.89876 9.48091L4.9535 9.5146L5.65258 9.51881C6.12003 9.52162 6.3685 9.51741 6.4064 9.50758C6.4822 9.48793 6.5566 9.41915 6.57485 9.35598C6.58327 9.32229 6.58889 8.82816 6.58889 7.95502C6.58889 7.88763 6.58888 7.82347 6.58887 7.76237C6.58873 6.69287 6.58871 6.55951 6.63788 6.44781C6.64489 6.43189 6.65289 6.41642 6.66204 6.39874C6.66556 6.39194 6.66925 6.3848 6.67311 6.37719C6.75032 6.22558 6.88368 6.11048 7.04932 6.05292C7.1532 6.01502 7.35113 6.01362 7.4522 6.04731C7.61223 6.10205 7.76805 6.22558 7.8242 6.34631C7.82717 6.35245 7.83002 6.35827 7.83275 6.36386C7.84039 6.37946 7.84715 6.39326 7.85314 6.40739C7.89918 6.51596 7.89988 6.64377 7.90591 7.75379C7.90626 7.81841 7.90663 7.88636 7.90702 7.95783L7.91545 9.363L7.95615 9.41493C7.97861 9.44441 8.02353 9.48091 8.05723 9.49495C8.11478 9.52162 8.15409 9.52162 8.76191 9.51881L9.40484 9.5146L9.45537 9.48091C9.48205 9.46266 9.51995 9.42476 9.5382 9.39809L9.57189 9.34755L9.5761 7.73323C9.58031 6.05713 9.5775 5.96589 9.52135 5.7455C9.41186 5.30893 9.13812 4.94535 8.74507 4.70952C8.44045 4.52703 8.01932 4.45263 7.5266 4.49615ZM2.54747 4.81901C2.58537 4.73479 2.63731 4.68144 2.72154 4.64214C2.73076 4.63771 2.73877 4.63386 2.74699 4.63052C2.8013 4.60845 2.86459 4.60845 3.34621 4.60845C3.87403 4.60845 3.90351 4.60985 3.96387 4.63793C4.04108 4.67302 4.11126 4.73759 4.15057 4.81199L4.18145 4.86814V9.26192L4.15057 9.31948C4.13372 9.35036 4.09582 9.39809 4.06775 9.42335C4.04429 9.44372 4.02653 9.45955 4.0066 9.47184C3.93587 9.51545 3.83772 9.5146 3.36025 9.5146C2.73979 9.5146 2.73838 9.5146 2.6331 9.41774C2.61363 9.39999 2.59742 9.39046 2.58394 9.37798C2.50996 9.30949 2.51799 9.15242 2.51799 7.06503C2.51799 4.89903 2.5194 4.88218 2.54747 4.81901Z" fill="white"/>
</svg>
