<svg width="219" height="43" viewBox="0 0 219 43" fill="none" xmlns="http://www.w3.org/2000/svg">
<path d="M27.5495 31.7975C27.549 30.0304 28.9688 28.5983 30.7206 28.5988L38.6503 28.6008C39.228 28.6009 39.7697 28.7569 40.2364 29.0293C41.1846 29.5827 41.8227 30.6169 41.823 31.8012C41.8235 33.5683 40.4037 35.0005 38.6519 35L30.7222 34.998C30.1646 34.9978 29.6406 34.8526 29.1853 34.5976C28.21 34.0515 27.5498 33.0022 27.5495 31.7975Z" fill="#821794"/>
<path d="M38.6468 14.5694L30.717 14.5674C30.4998 14.5673 30.2876 14.5453 30.0826 14.5032L30.0827 15.0312C30.2877 14.9893 30.4999 14.9673 30.7171 14.9673L40.2328 14.9698L40.2326 14.1418C39.7661 14.4139 39.2245 14.5696 38.6468 14.5694Z" fill="#821794"/>
<path fill-rule="evenodd" clip-rule="evenodd" d="M30.7154 8.16819C30.2848 8.16808 29.8743 8.25451 29.5001 8.41118C29.8727 9.19519 30.0815 10.0734 30.0817 11.0008L30.0826 14.5032C30.2876 14.5453 30.4998 14.5673 30.717 14.5674L38.6468 14.5694C39.2245 14.5696 39.7661 14.4139 40.2326 14.1418C41.1805 13.5888 41.8181 12.555 41.8178 11.3707C41.8174 9.60356 40.3969 8.17068 38.6451 8.17023L30.7154 8.16819Z" fill="#821794"/>
<path d="M40.2345 21.7689L30.7188 21.7665C28.967 21.766 27.5473 23.1982 27.5477 24.9653C27.5482 26.7324 28.9687 28.1653 30.7204 28.1657L40.2361 28.1681C41.9879 28.1686 43.4077 26.7365 43.4072 24.9694C43.4068 23.2023 41.9863 21.7694 40.2345 21.7689Z" fill="#821794"/>
<path d="M40.2328 14.9698L30.7171 14.9673C30.4999 14.9673 30.2877 14.9893 30.0827 15.0312L30.0832 17C30.0836 18.3445 29.2618 19.4952 28.0971 19.9684C28.6684 20.8122 29.6295 21.3663 30.7187 21.3665L40.2344 21.369C41.9862 21.3694 43.406 19.9373 43.4055 18.1702C43.4051 16.4031 41.9846 14.9702 40.2328 14.9698Z" fill="#821794"/>
<path d="M30.7206 28.5988L38.6503 28.6008C39.228 28.6009 39.7697 28.7569 40.2364 29.0293L40.2361 28.1681L30.7204 28.1657C28.9687 28.1653 27.5482 26.7324 27.5477 24.9653C27.5473 23.1982 28.967 21.766 30.7188 21.7665L40.2345 21.7689L40.2344 21.369L30.7187 21.3665C29.6295 21.3663 28.6684 20.8122 28.0971 19.9684C29.2618 19.4952 30.0836 18.3445 30.0832 17L30.0827 15.0312L30.0826 14.5032L30.0817 11.0008C30.0815 10.0734 29.8727 9.19519 29.5001 8.41118C28.5413 6.39398 26.4982 5.00061 24.1329 5C20.8483 4.99915 18.1863 7.68443 18.1871 10.9977L18.1874 12.1976L2.40723 12.1935L8.34085 18.1537L2.40961 21.5924L8.34121 25.0333L2.41198 30.989L18.8299 30.9954C19.8599 33.1268 22.0286 34.5958 24.5369 34.5964L29.1853 34.5976C28.21 34.0515 27.5498 33.0022 27.5495 31.7975C27.549 30.0304 28.9688 28.5983 30.7206 28.5988Z" fill="#821794"/>
<path d="M18.2092 28.6755C18.2095 28.6797 18.2098 28.6838 18.2101 28.6879C18.2572 29.3109 18.3928 29.9089 18.6041 30.4692C18.6225 30.518 18.6414 30.5664 18.6609 30.6145C18.7132 30.7437 18.7696 30.8707 18.8299 30.9954M18.1871 10.7578L18.1874 12.1976M40.2345 21.7689C41.9863 21.7694 43.4068 23.2023 43.4072 24.9694C43.4077 26.7365 41.9879 28.1686 40.2361 28.1681L30.7204 28.1657C28.9687 28.1653 27.5482 26.7324 27.5477 24.9653C27.5473 23.1982 28.967 21.766 30.7188 21.7665L40.2345 21.7689ZM40.2361 28.1681L40.2364 29.0293M40.2345 21.7689L40.2344 21.369M40.2344 21.369L30.7187 21.3665C29.6295 21.3663 28.6684 20.8122 28.0971 19.9684M30.0827 15.0312C30.2877 14.9893 30.4999 14.9673 30.7171 14.9673L40.2328 14.9698C41.9846 14.9702 43.4051 16.4031 43.4055 18.1702C43.406 19.9373 41.9862 21.3694 40.2344 21.369M40.2328 14.9698L40.2326 14.1418M30.0827 15.0312L30.0832 17C30.0836 18.3445 29.2618 19.4952 28.0971 19.9684C27.731 20.1171 27.3311 20.1989 26.9122 20.1988C25.1604 20.1984 23.7399 18.7655 23.7394 16.9984L23.738 11.3991M29.1853 34.5976L24.5369 34.5964C22.0286 34.5958 19.8599 33.1268 18.8299 30.9954M40.2364 29.0293C41.1846 29.5827 41.8227 30.6169 41.823 31.8012C41.8235 33.5683 40.4037 35.0004 38.6519 35L30.7222 34.998C30.1646 34.9978 29.6406 34.8526 29.1853 34.5976C28.21 34.0515 27.5498 33.0022 27.5495 31.7975C27.549 30.0304 28.9688 28.5983 30.7206 28.5988L38.6503 28.6008C39.228 28.6009 39.7697 28.7569 40.2364 29.0293ZM18.8299 30.9954L2.41198 30.989L8.34121 25.0333L2.40961 21.5924L8.34085 18.1537L2.40723 12.1935L18.1874 12.1976L18.1871 10.9977C18.1863 7.68443 20.8483 4.99915 24.1329 5C26.4982 5.00061 28.5413 6.39398 29.5001 8.41118C29.8727 9.19519 30.0815 10.0734 30.0817 11.0008L30.0826 14.5032L30.0827 15.0312M29.5001 8.41118C29.8743 8.25451 30.2848 8.16808 30.7154 8.16819L38.6451 8.17023C40.3969 8.17068 41.8174 9.60356 41.8178 11.3707C41.8181 12.555 41.1805 13.5888 40.2326 14.1418C39.7661 14.4139 39.2245 14.5696 38.6468 14.5694L30.717 14.5674C30.4998 14.5673 30.2876 14.5453 30.0826 14.5032" stroke="#E226EB" stroke-width="2"/>
<path d="M76.0072 32.28C74.4952 32.28 73.0766 32 71.7512 31.44C70.4446 30.8613 69.2966 30.068 68.3072 29.06C67.3366 28.0333 66.5712 26.8387 66.0112 25.476C65.4699 24.1133 65.1992 22.6387 65.1992 21.052C65.1992 19.484 65.4699 18.028 66.0112 16.684C66.5712 15.3213 67.3366 14.136 68.3072 13.128C69.2966 12.1013 70.4446 11.2987 71.7512 10.72C73.0579 10.1413 74.4766 9.852 76.0072 9.852C77.4446 9.852 78.6766 10.0387 79.7032 10.412C80.7486 10.7853 81.7939 11.4013 82.8392 12.26C82.9886 12.372 83.1006 12.4933 83.1752 12.624C83.2686 12.736 83.3246 12.8573 83.3432 12.988C83.3806 13.1 83.3992 13.24 83.3992 13.408C83.3992 13.7627 83.2686 14.0613 83.0072 14.304C82.7646 14.528 82.4659 14.6587 82.1112 14.696C81.7566 14.7147 81.4112 14.5933 81.0752 14.332C80.3846 13.7347 79.6659 13.2773 78.9192 12.96C78.1912 12.6427 77.2206 12.484 76.0072 12.484C74.9059 12.484 73.8699 12.708 72.8992 13.156C71.9286 13.604 71.0699 14.22 70.3232 15.004C69.5952 15.788 69.0259 16.7027 68.6152 17.748C68.2046 18.7747 67.9992 19.876 67.9992 21.052C67.9992 22.2467 68.2046 23.3667 68.6152 24.412C69.0259 25.4387 69.5952 26.344 70.3232 27.128C71.0699 27.912 71.9286 28.528 72.8992 28.976C73.8699 29.4053 74.9059 29.62 76.0072 29.62C76.9592 29.62 77.8552 29.4613 78.6952 29.144C79.5539 28.808 80.3752 28.3507 81.1592 27.772C81.4952 27.5293 81.8219 27.4267 82.1392 27.464C82.4752 27.4827 82.7552 27.6133 82.9792 27.856C83.2032 28.08 83.3152 28.3973 83.3152 28.808C83.3152 28.9947 83.2779 29.1813 83.2032 29.368C83.1286 29.536 83.0166 29.6947 82.8672 29.844C81.8592 30.6467 80.7766 31.2533 79.6192 31.664C78.4806 32.0747 77.2766 32.28 76.0072 32.28ZM89.4009 32C88.9902 32 88.6449 31.8693 88.3649 31.608C88.1035 31.328 87.9729 30.9827 87.9729 30.572V18.112C87.9729 17.6827 88.1035 17.3373 88.3649 17.076C88.6449 16.8147 88.9902 16.684 89.4009 16.684C89.8302 16.684 90.1755 16.8147 90.4369 17.076C90.6982 17.3373 90.8289 17.6827 90.8289 18.112V30.572C90.8289 30.9827 90.6982 31.328 90.4369 31.608C90.1755 31.8693 89.8302 32 89.4009 32ZM89.4009 14.192C88.8969 14.192 88.4582 14.0147 88.0849 13.66C87.7302 13.2867 87.5529 12.848 87.5529 12.344C87.5529 11.84 87.7302 11.4107 88.0849 11.056C88.4582 10.6827 88.8969 10.496 89.4009 10.496C89.9049 10.496 90.3342 10.6827 90.6889 11.056C91.0622 11.4107 91.2489 11.84 91.2489 12.344C91.2489 12.848 91.0622 13.2867 90.6889 13.66C90.3342 14.0147 89.9049 14.192 89.4009 14.192ZM109.078 32.028C108.667 32.028 108.322 31.8973 108.042 31.636C107.781 31.356 107.65 31.0107 107.65 30.6V23.712C107.65 22.648 107.454 21.78 107.062 21.108C106.67 20.436 106.138 19.9413 105.466 19.624C104.813 19.288 104.057 19.12 103.198 19.12C102.414 19.12 101.705 19.2787 101.07 19.596C100.435 19.9133 99.9314 20.3427 99.5581 20.884C99.1847 21.4067 98.9981 22.0133 98.9981 22.704H97.2341C97.2341 21.528 97.5141 20.4827 98.0741 19.568C98.6527 18.6347 99.4367 17.8973 100.426 17.356C101.415 16.8147 102.526 16.544 103.758 16.544C105.046 16.544 106.194 16.824 107.202 17.384C108.229 17.9253 109.031 18.728 109.61 19.792C110.207 20.856 110.506 22.1627 110.506 23.712V30.6C110.506 31.0107 110.366 31.356 110.086 31.636C109.825 31.8973 109.489 32.028 109.078 32.028ZM97.5701 32.028C97.1594 32.028 96.8141 31.8973 96.5341 31.636C96.2727 31.356 96.1421 31.0107 96.1421 30.6V18.112C96.1421 17.6827 96.2727 17.3373 96.5341 17.076C96.8141 16.8147 97.1594 16.684 97.5701 16.684C97.9994 16.684 98.3447 16.8147 98.6061 17.076C98.8674 17.3373 98.9981 17.6827 98.9981 18.112V30.6C98.9981 31.0107 98.8674 31.356 98.6061 31.636C98.3447 31.8973 97.9994 32.028 97.5701 32.028ZM122.424 32.112C120.875 32.112 119.493 31.7853 118.28 31.132C117.085 30.46 116.143 29.5453 115.452 28.388C114.78 27.212 114.444 25.868 114.444 24.356C114.444 22.8253 114.761 21.4813 115.396 20.324C116.049 19.148 116.945 18.2333 118.084 17.58C119.223 16.908 120.529 16.572 122.004 16.572C123.46 16.572 124.711 16.8987 125.756 17.552C126.801 18.1867 127.595 19.0733 128.136 20.212C128.696 21.332 128.976 22.6293 128.976 24.104C128.976 24.4587 128.855 24.7573 128.612 25C128.369 25.224 128.061 25.336 127.688 25.336H116.404V23.096H127.604L126.456 23.88C126.437 22.9467 126.251 22.116 125.896 21.388C125.541 20.6413 125.037 20.0533 124.384 19.624C123.731 19.1947 122.937 18.98 122.004 18.98C120.94 18.98 120.025 19.2133 119.26 19.68C118.513 20.1467 117.944 20.7907 117.552 21.612C117.16 22.4147 116.964 23.3293 116.964 24.356C116.964 25.3827 117.197 26.2973 117.664 27.1C118.131 27.9027 118.775 28.5373 119.596 29.004C120.417 29.4707 121.36 29.704 122.424 29.704C123.003 29.704 123.591 29.6013 124.188 29.396C124.804 29.172 125.299 28.92 125.672 28.64C125.952 28.4347 126.251 28.332 126.568 28.332C126.904 28.3133 127.193 28.4067 127.436 28.612C127.753 28.892 127.921 29.2 127.94 29.536C127.959 29.872 127.809 30.1613 127.492 30.404C126.857 30.908 126.064 31.3187 125.112 31.636C124.179 31.9533 123.283 32.112 122.424 32.112Z" fill="white"/>
<path d="M150.562 16.7949C150.552 17.5788 150.475 18.2806 150.329 18.9004C150.192 19.5202 149.992 20.0807 149.728 20.582C149.472 21.0742 149.158 21.5208 148.784 21.9219C148.42 22.3138 148 22.6829 147.526 23.0293C146.615 23.6855 145.617 24.1823 144.532 24.5195C143.448 24.8477 142.358 25.0117 141.265 25.0117C141.082 25.0117 140.9 25.0072 140.718 24.998C140.545 24.9889 140.367 24.9753 140.185 24.957L139.733 29.9473L139.501 30.3711C139.483 30.4076 139.328 30.4805 139.036 30.5898C138.744 30.6992 138.38 30.8268 137.942 30.9727L137.081 31.2598C136.808 31.36 136.566 31.4512 136.356 31.5332C136.147 31.6152 135.951 31.6882 135.769 31.752C135.586 31.8158 135.409 31.8613 135.235 31.8887C135.062 31.9251 134.88 31.9434 134.688 31.9434C134.561 31.9434 134.461 31.9115 134.388 31.8477C134.315 31.7839 134.278 31.6608 134.278 31.4785L134.429 29.1406C134.456 28.6758 134.488 28.2109 134.524 27.7461C134.57 27.2721 134.611 26.7344 134.647 26.1328L134.907 22.8652C134.962 22.1999 135.012 21.5345 135.058 20.8691C135.103 20.2038 135.149 19.5703 135.194 18.9688C135.24 18.3672 135.281 17.8066 135.317 17.2871C135.354 16.7585 135.386 16.2982 135.413 15.9062C134.921 16.0156 134.524 16.0977 134.224 16.1523C133.932 16.1979 133.709 16.2207 133.554 16.2207C133.362 16.2207 133.267 16.1387 133.267 15.9746C133.394 15.528 133.513 15.0905 133.622 14.6621C133.722 14.2975 133.823 13.9238 133.923 13.541C134.032 13.1491 134.123 12.821 134.196 12.5566C134.242 12.3926 134.292 12.2695 134.347 12.1875C134.41 12.0964 134.488 12.028 134.579 11.9824C134.679 11.9277 134.802 11.8822 134.948 11.8457C135.103 11.8001 135.29 11.7409 135.509 11.668C135.682 11.6133 135.924 11.554 136.233 11.4902C136.552 11.4173 136.912 11.349 137.313 11.2852C137.724 11.2122 138.166 11.1439 138.64 11.0801C139.114 11.0163 139.592 10.9616 140.075 10.916C140.567 10.8613 141.05 10.8203 141.524 10.793C141.998 10.7565 142.445 10.7383 142.864 10.7383C143.903 10.7383 144.888 10.834 145.817 11.0254C146.747 11.2168 147.563 11.5449 148.265 12.0098C148.966 12.4655 149.522 13.0853 149.933 13.8691C150.352 14.6439 150.562 15.6191 150.562 16.7949ZM140.567 20.8965C140.567 20.9967 140.586 21.0879 140.622 21.1699C140.659 21.2428 140.759 21.2793 140.923 21.2793C141.178 21.2793 141.479 21.2246 141.825 21.1152C142.181 20.9967 142.532 20.8236 142.878 20.5957C143.233 20.3678 143.562 20.0853 143.862 19.748C144.163 19.4108 144.391 19.0143 144.546 18.5586C144.61 18.3763 144.66 18.1439 144.696 17.8613C144.742 17.5788 144.765 17.2461 144.765 16.8633C144.765 16.2253 144.541 15.7559 144.095 15.4551C143.657 15.1543 143.083 15.0039 142.372 15.0039C142.254 15.0039 142.117 15.013 141.962 15.0312C141.816 15.0404 141.675 15.0632 141.538 15.0996C141.41 15.1361 141.301 15.1816 141.21 15.2363C141.119 15.2819 141.069 15.3457 141.06 15.4277L141.032 15.7285C141.023 15.847 141.005 16.043 140.978 16.3164C140.95 16.5807 140.918 16.8861 140.882 17.2324C140.854 17.5788 140.823 17.9434 140.786 18.3262C140.759 18.709 140.727 19.0736 140.69 19.4199C140.663 19.7663 140.636 20.0716 140.608 20.3359C140.59 20.6003 140.576 20.7871 140.567 20.8965ZM165.847 29.3047C165.819 29.6055 165.783 29.8151 165.737 29.9336C165.692 30.043 165.591 30.1159 165.437 30.1523C164.662 30.3711 163.851 30.5944 163.003 30.8223C162.164 31.041 161.349 31.3327 160.556 31.6973C160.528 31.7064 160.487 31.7109 160.433 31.7109C160.36 31.7109 160.314 31.6927 160.296 31.6562C160.287 31.6198 160.282 31.5788 160.282 31.5332C160.282 31.515 160.282 31.4831 160.282 31.4375C160.291 31.3919 160.305 31.3053 160.323 31.1777C160.341 31.0592 160.364 30.8906 160.392 30.6719C160.428 30.4531 160.474 30.1615 160.528 29.7969C159.507 30.4622 158.601 30.9453 157.808 31.2461C157.024 31.556 156.326 31.7109 155.716 31.7109C154.194 31.7109 153.082 31.3464 152.38 30.6172C151.687 29.8789 151.341 28.7806 151.341 27.3223C151.341 27.0579 151.345 26.7891 151.354 26.5156C151.364 26.2331 151.391 25.946 151.437 25.6543C151.537 24.5788 151.623 23.6582 151.696 22.8926C151.769 22.1178 151.828 21.4616 151.874 20.9238C151.92 20.3861 151.956 19.9486 151.983 19.6113C152.02 19.265 152.047 18.9779 152.065 18.75C152.093 18.5221 152.111 18.3353 152.12 18.1895C152.138 18.0345 152.157 17.8841 152.175 17.7383C152.211 17.4466 152.243 17.2415 152.271 17.123C152.307 17.0046 152.412 16.9271 152.585 16.8906C153.013 16.8086 153.419 16.7357 153.802 16.6719C154.194 16.599 154.576 16.526 154.95 16.4531C155.333 16.3711 155.72 16.2845 156.112 16.1934C156.504 16.1022 156.919 15.9928 157.356 15.8652C157.375 15.8652 157.393 15.8652 157.411 15.8652C157.429 15.8561 157.448 15.8516 157.466 15.8516C157.575 15.8516 157.63 15.888 157.63 15.9609V15.9883C157.593 16.2982 157.562 16.5898 157.534 16.8633C157.507 17.1367 157.479 17.4193 157.452 17.7109C157.425 17.9935 157.393 18.2988 157.356 18.627C157.329 18.9551 157.293 19.3379 157.247 19.7754C157.201 20.2038 157.147 20.7005 157.083 21.2656C157.019 21.8307 156.942 22.487 156.851 23.2344C156.796 23.7812 156.741 24.3281 156.687 24.875C156.632 25.4128 156.604 25.9141 156.604 26.3789C156.604 26.6341 156.623 26.8711 156.659 27.0898C156.696 27.2995 156.759 27.4818 156.851 27.6367C156.951 27.7826 157.078 27.8965 157.233 27.9785C157.388 28.0605 157.589 28.1016 157.835 28.1016C158.026 28.1016 158.286 28.0605 158.614 27.9785C158.942 27.8874 159.271 27.737 159.599 27.5273C159.927 27.3086 160.214 27.026 160.46 26.6797C160.715 26.3242 160.861 25.8776 160.897 25.3398C160.961 24.4375 161.016 23.6855 161.062 23.084C161.116 22.4733 161.162 21.9629 161.198 21.5527C161.235 21.1335 161.267 20.7826 161.294 20.5C161.321 20.2174 161.344 19.9486 161.362 19.6934C161.39 19.429 161.412 19.151 161.431 18.8594C161.449 18.5586 161.467 18.1849 161.485 17.7383C161.513 17.4375 161.545 17.2324 161.581 17.123C161.627 17.0046 161.731 16.9271 161.896 16.8906C162.725 16.7266 163.573 16.5625 164.438 16.3984C165.304 16.2253 166.152 16.0065 166.981 15.7422C167.054 15.7422 167.095 15.7559 167.104 15.7832C167.123 15.8014 167.132 15.8333 167.132 15.8789L165.847 29.3047ZM180.243 31.4922C180.143 31.5195 180.011 31.5605 179.847 31.6152C179.683 31.679 179.523 31.7109 179.368 31.7109C179.241 31.7109 179.127 31.679 179.026 31.6152C178.935 31.5514 178.89 31.4421 178.89 31.2871V31.2051C178.944 30.7129 178.99 30.2982 179.026 29.9609C179.063 29.6146 179.095 29.3047 179.122 29.0312C179.159 28.7487 179.186 28.4707 179.204 28.1973C179.231 27.9147 179.263 27.5911 179.3 27.2266C179.336 26.8529 179.377 26.4154 179.423 25.9141C179.478 25.4036 179.541 24.7702 179.614 24.0137C179.66 23.5488 179.701 23.0749 179.737 22.5918C179.774 22.1087 179.792 21.6621 179.792 21.252C179.792 20.9785 179.769 20.7279 179.724 20.5C179.687 20.263 179.614 20.0625 179.505 19.8984C179.405 19.7253 179.263 19.5931 179.081 19.502C178.899 19.4108 178.666 19.3652 178.384 19.3652C178.174 19.3652 177.882 19.4108 177.509 19.502C177.144 19.5931 176.78 19.7435 176.415 19.9531C176.05 20.1628 175.727 20.4408 175.444 20.7871C175.162 21.1243 175.002 21.5436 174.966 22.0449C174.911 22.7194 174.861 23.2982 174.815 23.7812C174.77 24.2552 174.729 24.6608 174.692 24.998C174.656 25.3262 174.624 25.5951 174.597 25.8047C174.578 26.0143 174.565 26.1921 174.556 26.3379C174.547 26.3743 174.533 26.4746 174.515 26.6387C174.496 26.8027 174.474 26.9987 174.446 27.2266C174.428 27.4544 174.405 27.696 174.378 27.9512C174.36 28.2064 174.337 28.4479 174.31 28.6758C174.291 28.9036 174.273 29.0996 174.255 29.2637C174.246 29.4277 174.241 29.528 174.241 29.5645C174.241 29.6374 174.241 29.7012 174.241 29.7559C174.25 29.8014 174.255 29.847 174.255 29.8926C174.255 29.9655 174.218 30.0293 174.146 30.084C174.082 30.1296 173.931 30.1842 173.694 30.248L170.071 31.4922C169.971 31.5286 169.839 31.5742 169.675 31.6289C169.511 31.6836 169.351 31.7109 169.196 31.7109C169.069 31.7109 168.955 31.679 168.854 31.6152C168.763 31.5514 168.718 31.4421 168.718 31.2871L169.962 17.3145C169.989 17.0137 170.021 16.8086 170.058 16.6992C170.103 16.5807 170.208 16.5033 170.372 16.4668C171.201 16.3027 172.054 16.1387 172.929 15.9746C173.804 15.8014 174.656 15.5827 175.485 15.3184C175.558 15.3184 175.599 15.332 175.608 15.3594C175.627 15.3776 175.636 15.4095 175.636 15.4551C175.636 15.4733 175.631 15.5007 175.622 15.5371C175.622 15.5736 175.608 15.6556 175.581 15.7832C175.563 15.9108 175.531 16.1068 175.485 16.3711C175.449 16.6263 175.394 16.9863 175.321 17.4512C175.95 17.0866 176.538 16.7949 177.085 16.5762C177.641 16.3483 178.16 16.1751 178.644 16.0566C179.136 15.929 179.596 15.847 180.024 15.8105C180.453 15.765 180.854 15.7422 181.228 15.7422C182.513 15.7422 183.447 16.1341 184.03 16.918C184.614 17.6927 184.905 18.8594 184.905 20.418C184.905 20.6367 184.901 20.8646 184.892 21.1016C184.882 21.3294 184.864 21.5664 184.837 21.8125L184.208 27.6914C184.162 28.0742 184.135 28.4297 184.126 28.7578C184.117 29.0768 184.112 29.4505 184.112 29.8789C184.112 29.9518 184.112 30.0156 184.112 30.0703C184.121 30.1159 184.126 30.1569 184.126 30.1934C184.126 30.2754 184.09 30.3392 184.017 30.3848C183.953 30.4303 183.802 30.4896 183.565 30.5625L180.243 31.4922ZM186.696 24.3281C186.696 23.1341 186.915 22.0176 187.353 20.9785C187.799 19.9303 188.41 19.0189 189.185 18.2441C189.968 17.4694 190.889 16.8587 191.946 16.4121C193.013 15.9655 194.17 15.7422 195.419 15.7422C196.267 15.7422 196.991 15.8105 197.593 15.9473C198.194 16.084 198.687 16.2389 199.069 16.4121C199.452 16.5762 199.73 16.7311 199.903 16.877C200.086 17.0137 200.177 17.0866 200.177 17.0957C200.177 17.1504 200.154 17.3053 200.108 17.5605C200.072 17.8066 200.026 18.0983 199.972 18.4355C199.926 18.7637 199.881 19.1055 199.835 19.4609C199.799 19.8073 199.78 20.1081 199.78 20.3633C199.78 20.4089 199.767 20.459 199.739 20.5137C199.712 20.5684 199.639 20.5957 199.521 20.5957C199.411 20.5957 199.252 20.5592 199.042 20.4863C198.832 20.4043 198.573 20.3177 198.263 20.2266C197.962 20.1354 197.611 20.0534 197.21 19.9805C196.818 19.8984 196.381 19.8574 195.897 19.8574C195.296 19.8574 194.754 19.9668 194.271 20.1855C193.787 20.3952 193.373 20.6914 193.026 21.0742C192.68 21.4479 192.411 21.8945 192.22 22.4141C192.037 22.9336 191.946 23.4941 191.946 24.0957C191.946 24.7246 192.042 25.2624 192.233 25.709C192.434 26.1465 192.698 26.5065 193.026 26.7891C193.354 27.0625 193.733 27.263 194.161 27.3906C194.59 27.5182 195.041 27.582 195.515 27.582C196.062 27.582 196.613 27.5091 197.169 27.3633C197.725 27.2083 198.249 26.9941 198.741 26.7207C198.759 26.7116 198.796 26.707 198.851 26.707C198.896 26.707 198.928 26.7298 198.946 26.7754C198.974 26.821 198.987 26.9076 198.987 27.0352C198.987 27.3268 198.987 27.6823 198.987 28.1016C198.987 28.5117 198.983 28.9082 198.974 29.291C198.974 29.6647 198.969 29.9837 198.96 30.248C198.951 30.5124 198.942 30.6445 198.933 30.6445C198.604 30.8633 198.249 31.041 197.866 31.1777C197.483 31.3145 197.087 31.4238 196.677 31.5059C196.276 31.5879 195.87 31.6426 195.46 31.6699C195.05 31.6973 194.653 31.7109 194.271 31.7109C193.204 31.7109 192.211 31.5332 191.29 31.1777C190.369 30.8223 189.567 30.321 188.884 29.6738C188.209 29.0267 187.676 28.252 187.284 27.3496C186.892 26.4382 186.696 25.431 186.696 24.3281ZM202.938 11.1211C202.938 11.0664 202.934 11.0163 202.925 10.9707C202.925 10.9251 202.925 10.8796 202.925 10.834C202.925 10.752 202.957 10.6836 203.021 10.6289C203.084 10.5651 203.239 10.5013 203.485 10.4375L207.327 9.52148C207.427 9.50326 207.56 9.46224 207.724 9.39844C207.888 9.33464 208.047 9.30273 208.202 9.30273C208.521 9.30273 208.681 9.44857 208.681 9.74023C208.681 9.75846 208.667 9.94531 208.64 10.3008C208.612 10.6562 208.576 11.0983 208.53 11.627C208.485 12.1556 208.435 12.7344 208.38 13.3633C208.325 13.9831 208.271 14.5755 208.216 15.1406C208.161 15.7057 208.111 16.2025 208.065 16.6309C208.02 17.0501 207.983 17.3236 207.956 17.4512C208.384 17.2142 208.831 16.9909 209.296 16.7812C209.761 16.5716 210.226 16.3893 210.69 16.2344C211.164 16.0794 211.634 15.9609 212.099 15.8789C212.573 15.7878 213.028 15.7422 213.466 15.7422C214.022 15.7422 214.541 15.8242 215.024 15.9883C215.507 16.1432 215.927 16.4076 216.282 16.7812C216.647 17.1458 216.929 17.6289 217.13 18.2305C217.34 18.8229 217.444 19.5521 217.444 20.418C217.444 20.6367 217.44 20.8646 217.431 21.1016C217.422 21.3294 217.403 21.5664 217.376 21.8125L216.788 27.4043C216.743 27.7871 216.715 28.1882 216.706 28.6074C216.697 29.0176 216.692 29.4414 216.692 29.8789C216.692 29.9518 216.692 30.0156 216.692 30.0703C216.701 30.1159 216.706 30.1569 216.706 30.1934C216.706 30.2754 216.67 30.3392 216.597 30.3848C216.533 30.4303 216.382 30.4896 216.146 30.5625L212.796 31.4922C212.696 31.5195 212.563 31.5605 212.399 31.6152C212.235 31.679 212.076 31.7109 211.921 31.7109C211.766 31.7109 211.647 31.6745 211.565 31.6016C211.483 31.5378 211.442 31.4056 211.442 31.2051C211.506 30.5215 211.556 29.9701 211.593 29.5508C211.638 29.1315 211.67 28.7988 211.688 28.5527C211.716 28.2975 211.739 28.1061 211.757 27.9785C211.775 27.8418 211.789 27.7233 211.798 27.623C211.807 27.5137 211.821 27.3952 211.839 27.2676C211.857 27.1309 211.875 26.9349 211.894 26.6797C211.921 26.4245 211.953 26.0872 211.989 25.668C212.035 25.2487 212.09 24.6973 212.153 24.0137C212.19 23.6491 212.226 23.2891 212.263 22.9336C212.308 22.569 212.331 22.2363 212.331 21.9355C212.331 21.5527 212.308 21.2064 212.263 20.8965C212.226 20.5775 212.153 20.3086 212.044 20.0898C211.944 19.862 211.802 19.6842 211.62 19.5566C211.438 19.429 211.205 19.3652 210.923 19.3652C210.713 19.3652 210.426 19.4108 210.062 19.502C209.706 19.5931 209.346 19.7435 208.981 19.9531C208.626 20.1628 208.307 20.4408 208.024 20.7871C207.751 21.1243 207.596 21.5436 207.56 22.0449C207.487 22.7467 207.427 23.321 207.382 23.7676C207.345 24.2142 207.313 24.5833 207.286 24.875C207.259 25.1667 207.236 25.3991 207.218 25.5723C207.209 25.7454 207.2 25.9049 207.19 26.0508C207.181 26.0964 207.168 26.2103 207.149 26.3926C207.131 26.5658 207.108 26.7754 207.081 27.0215C207.054 27.2676 207.026 27.5319 206.999 27.8145C206.972 28.0879 206.944 28.3477 206.917 28.5938C206.899 28.8398 206.881 29.054 206.862 29.2363C206.853 29.4095 206.849 29.5189 206.849 29.5645C206.849 29.6374 206.849 29.7012 206.849 29.7559C206.858 29.8014 206.862 29.847 206.862 29.8926C206.862 29.9655 206.826 30.0293 206.753 30.084C206.689 30.1296 206.539 30.1842 206.302 30.248L202.733 31.4922C202.633 31.5286 202.501 31.5742 202.337 31.6289C202.173 31.6836 202.013 31.7109 201.858 31.7109C201.722 31.7109 201.608 31.6699 201.517 31.5879C201.425 31.515 201.38 31.3874 201.38 31.2051L202.938 11.1211Z" fill="#E226EB"/>
</svg>
